PathFileType	4	(X/Y/Z)	./resultDataOpenSim/trcMotMarkerGrf/sub09/qtm-12-03.trc
DataRate	CameraRate	NumFrames	NumMarkers	Units	OrigDataRate	OrigDataStartFrame	OrigNumFrames
250.000000	250.000000	11	24	m	250.000000	59	466
Frame#	Time	L.Toe.Tip			R.Toe.Tip			L.Ankle.Lat			R.Ankle.Lat			L.Ankle.Med			R.Ankle.Med			L.Heel			R.Heel			L.Knee.Lat			R.Knee.Lat			L.Knee.Med			R.Knee.Med			L.Thigh.Upper			R.Thigh.Upper			L.ASIS			R.ASIS			V.Sacral			L.Acromium			R.Acromium			C7			L.Elbow			R.Elbow			L.Wrist.Lat			R.Wrist.Lat
		X1	Y1	Z1	X2	Y2	Z2	X3	Y3	Z3	X4	Y4	Z4	X5	Y5	Z5	X6	Y6	Z6	X7	Y7	Z7	X8	Y8	Z8	X9	Y9	Z9	X10	Y10	Z10	X11	Y11	Z11	X12	Y12	Z12	X13	Y13	Z13	X14	Y14	Z14	X15	Y15	Z15	X16	Y16	Z16	X17	Y17	Z17	X18	Y18	Z18	X19	Y19	Z19	X20	Y20	Z20	X21	Y21	Z21	X22	Y22	Z22	X23	Y23	Z23	X24	Y24	Z24

59	0.232	-1.2893109	0.091783509	-0.078830073	-0.59123774	0.038619598	0.061310967	-1.3115127	0.24613744	-0.11827263	-0.73716918	0.054543972	0.098529535	-1.2854036	0.2313849	-0.024946532	-0.73220551	0.08927787	0.0056363345	-1.3722577	0.29232638	-0.066769734	-0.80770415	0.031669194	0.052780831	-0.93780014	0.41475893	-0.15182601	-0.68261072	0.50509669	0.14413419	-0.92640469	0.3999302	-0.025350816	-0.70368239	0.49164194	0.018843188	-0.92563037	0.8233001	-0.16008259	-0.88672969	0.85485134	0.21181554	-0.83432105	0.91133252	-0.11077494	-0.8179303	0.94024003	0.12832528	-0.99116199	0.98042079	0.02040357	-0.81763749	1.378452	-0.14460191	-0.84078467	1.3854176	0.1829354	-0.89082723	1.4344612	0.017882197	-0.96922938	1.0396551	-0.22589416	-0.98889674	1.0549093	0.26751154	-0.78535563	0.84181244	-0.2211476	-0.86037965	0.81827506	0.31990226
60	0.236	-1.2735428	0.093166947	-0.079830594	-0.59127908	0.038630101	0.061244601	-1.2968925	0.24737753	-0.11811724	-0.73728953	0.054593522	0.09849526	-1.2704506	0.2324694	-0.024912837	-0.73198273	0.08926652	0.005516046	-1.3581855	0.29293661	-0.066815684	-0.80780059	0.031654722	0.052699556	-0.92387124	0.4161253	-0.15150455	-0.67968592	0.50482237	0.14418056	-0.91211109	0.40103546	-0.024928938	-0.70061695	0.49151554	0.018970093	-0.91934727	0.82453821	-0.16009437	-0.88082707	0.85664911	0.21185794	-0.828211	0.91291009	-0.11090551	-0.81140242	0.94182121	0.12813277	-0.98481267	0.98230904	0.020716897	-0.81140315	1.380004	-0.14471626	-0.8335514	1.3868598	0.18285558	-0.88419778	1.4361678	0.018226457	-0.96322487	1.0413002	-0.22546785	-0.98150363	1.0561407	0.2680635	-0.78085844	0.84201082	-0.22123227	-0.85128836	0.81986344	0.31927429
61	0.24	-1.2573309	0.094264367	-0.080743193	-0.59129337	0.038635667	0.061178849	-1.2820705	0.24818697	-0.11796249	-0.73738189	0.054638825	0.09847869	-1.2553448	0.23328106	-0.024859255	-0.73176887	0.089280093	0.0054207954	-1.3439035	0.29322887	-0.067278368	-0.80789798	0.031643565	0.052635043	-0.90998728	0.41768918	-0.15112883	-0.67701358	0.5045386	0.14432674	-0.89790836	0.40233564	-0.024453456	-0.69784114	0.4913363	0.019306159	-0.91315321	0.82588338	-0.16016275	-0.8749655	0.85850355	0.2118656	-0.82214523	0.91460116	-0.11101356	-0.80493648	0.94348128	0.12794152	-0.97855528	0.984243	0.020937585	-0.80521152	1.3816531	-0.14484668	-0.82633491	1.3883943	0.18275382	-0.87758027	1.4379467	0.018554258	-0.95709368	1.043047	-0.22491833	-0.97415632	1.0574736	0.26860153	-0.77639814	0.8423276	-0.22131943	-0.84225063	0.82155605	0.31858921
62	0.244	-1.24073	0.095096271	-0.081548238	-0.5912848	0.03864069	0.061121659	-1.2671123	0.24860219	-0.11780476	-0.73746326	0.054679102	0.09847705	-1.2401868	0.23379752	-0.02477347	-0.731573	0.089300685	0.0053529917	-1.3295114	0.29314465	-0.067794732	-0.80798883	0.031635736	0.052588357	-0.89610051	0.41943979	-0.15069969	-0.67466937	0.50424349	0.14464259	-0.88379899	0.40384563	-0.023928959	-0.69538709	0.49112593	0.019837934	-0.90690239	0.82736156	-0.16023807	-0.86911916	0.86040062	0.21185285	-0.81610895	0.91640587	-0.1111014	-0.79853789	0.94519378	0.1277726	-0.97242789	0.98617847	0.021050419	-0.79907683	1.3834071	-0.14499161	-0.81917201	1.3900229	0.18264921	-0.87098586	1.4397881	0.018848589	-0.9507049	1.0448618	-0.22416057	-0.96685455	1.0589048	0.26912482	-0.77199748	0.84276085	-0.22140865	-0.83327812	0.82335711	0.31785689
63	0.248	-1.2237803	0.095664367	-0.082224885	-0.59127665	0.038654287	0.061089645	-1.2520766	0.24866002	-0.1176356	-0.73753892	0.054711569	0.098494875	-1.2251533	0.23398394	-0.024610831	-0.73139562	0.089322144	0.0053113085	-1.3151176	0.2925947	-0.068042672	-0.8080685	0.031632081	0.052553748	-0.88227317	0.42137953	-0.1502007	-0.67260431	0.50398196	0.14511963	-0.8697622	0.4055759	-0.023358854	-0.693181	0.49090623	0.020435312	-0.90037004	0.82900745	-0.16023705	-0.86327357	0.86231405	0.21183314	-0.81009076	0.91831789	-0.11116402	-0.79221095	0.94693566	0.12763416	-0.96645039	0.98808638	0.021047948	-0.79299282	1.3852651	-0.14514584	-0.81208129	1.3917354	0.18255099	-0.86442523	1.4416851	0.019093466	-0.94422374	1.0467434	-0.22328679	-0.95959215	1.0604265	0.26962745	-0.76766751	0.84331065	-0.22149959	-0.82437211	0.82527044	0.31709042
64	0.252	-1.2065246	0.09596257	-0.082742911	-0.5912848	0.038680254	0.06109051	-1.2369815	0.24838803	-0.11744973	-0.73760823	0.054735195	0.09853249	-1.2102907	0.23382587	-0.024344845	-0.73123752	0.089345547	0.0052936361	-1.3007824	0.29154893	-0.067979162	-0.80813617	0.031634524	0.052524257	-0.86864093	0.42350106	-0.14961909	-0.67057489	0.5037753	0.14564414	-0.85575019	0.40753538	-0.022780519	-0.69110044	0.49069359	0.020946702	-0.89351966	0.83082798	-0.16013946	-0.85742953	0.86421016	0.21180592	-0.80408423	0.92032797	-0.11118335	-0.78596002	0.94869243	0.12753647	-0.96057774	0.99000054	0.02095927	-0.78691229	1.3872081	-0.14529644	-0.80506345	1.3935158	0.18245902	-0.8578989	1.4436321	0.019274991	-0.93797539	1.0487279	-0.22249706	-0.95236568	1.0620285	0.27009659	-0.76341176	0.84398414	-0.22159098	-0.81551898	0.82730476	0.31630307
65	0.256	-1.1890293	0.095986062	-0.083058324	-0.59131359	0.038717749	0.06112327	-1.2217865	0.24779827	-0.11725863	-0.73766766	0.054753876	0.098579523	-1.1952678	0.23335945	-0.024042428	-0.73110335	0.089376763	0.0053000426	-1.2864784	0.29002832	-0.067772681	-0.80819382	0.03164529	0.052493463	-0.85521052	0.42577823	-0.14897962	-0.66836287	0.50359388	0.14609106	-0.84166554	0.40974656	-0.022298148	-0.68898473	0.49049515	0.021251444	-0.8866191	0.83278551	-0.1600389	-0.85164029	0.86606488	0.21176737	-0.79809622	0.92242955	-0.11113803	-0.77979329	0.95046106	0.12749325	-0.95471806	0.9919958	0.020844538	-0.78081038	1.38921	-0.14543077	-0.79812341	1.3953569	0.18237312	-0.85139556	1.4456196	0.019388724	-0.93207859	1.0508341	-0.22187865	-0.94517806	1.0636997	0.27052119	-0.75922848	0.84478637	-0.22167765	-0.80671652	0.82947042	0.31550535
66	0.26	-1.1713356	0.095749293	-0.083149577	-0.59136465	0.038765337	0.061184807	-1.2064161	0.24689181	-0.11709338	-0.73771992	0.054773879	0.098622365	-1.1795598	0.23266355	-0.023831058	-0.73100051	0.089423642	0.0053312077	-1.2720981	0.28805655	-0.067630858	-0.80824637	0.031665545	0.05245594	-0.84183711	0.42818288	-0.14832708	-0.6660002	0.50342017	0.14642975	-0.82746564	0.412249	-0.021994348	-0.686662	0.49031387	0.021247726	-0.87993252	0.83483106	-0.16001545	-0.84606672	0.86787575	0.21173167	-0.79214648	0.92461764	-0.11101521	-0.77372671	0.95223789	0.12750105	-0.94881344	0.99410125	0.020754756	-0.77474294	1.3912585	-0.14554716	-0.79126525	1.3972608	0.18229479	-0.84489961	1.4476329	0.019451548	-0.92638297	1.053038	-0.22134713	-0.93803391	1.0654322	0.27090022	-0.7551117	0.84570872	-0.2217508	-0.79801768	0.83175693	0.31470069
67	0.264	-1.1533868	0.095294826	-0.083061389	-0.59143909	0.038820853	0.061270494	-1.1908376	0.24566991	-0.1169654	-0.73778133	0.054801076	0.098652162	-1.1630999	0.23179172	-0.023749544	-0.73093685	0.089490351	0.0053844333	-1.2575557	0.28565241	-0.067664951	-0.80830083	0.031695921	0.052407458	-0.82844759	0.43070809	-0.14767539	-0.66371352	0.50329107	0.14670411	-0.8133552	0.41505617	-0.021761117	-0.68411641	0.49016064	0.020952076	-0.87340675	0.83694361	-0.15999886	-0.84091257	0.86965746	0.21172717	-0.78624198	0.92688559	-0.11081927	-0.76777131	0.95400981	0.12754587	-0.94288378	0.99626113	0.020700509	-0.76876395	1.3933549	-0.14565179	-0.78447762	1.3992289	0.18222417	-0.83840144	1.4496601	0.019492345	-0.92071776	1.0553092	-0.22078793	-0.93093577	1.0672211	0.27124034	-0.75105489	0.84673192	-0.22180347	-0.78951661	0.83412009	0.313887
68	0.268	-1.1350572	0.094675701	-0.082881815	-0.59153591	0.038880664	0.061373152	-1.1751096	0.24413714	-0.1168316	-0.73787499	0.05484069	0.09866472	-1.1464367	0.23072323	-0.023694282	-0.73091779	0.089573564	0.0054528971	-1.2428912	0.28284441	-0.067814987	-0.80836247	0.031736706	0.052344468	-0.8151191	0.43337417	-0.14700654	-0.66173527	0.50323038	0.14696599	-0.79973342	0.41810514	-0.021310801	-0.68159348	0.49005264	0.020588787	-0.86679558	0.83912854	-0.15984202	-0.83614655	0.87142663	0.21176173	-0.78035568	0.92922806	-0.11057405	-0.76188875	0.9557652	0.12763257	-0.9369733	0.99840689	0.020664963	-0.76284576	1.3954968	-0.14574977	-0.7777451	1.401254	0.18215992	-0.83190108	1.4516978	0.019528813	-0.91504466	1.057639	-0.22016057	-0.92388802	1.0690613	0.27154182	-0.74705375	0.84783998	-0.22183503	-0.78125556	0.83651205	0.3130659
69	0.272	-1.1162703	0.093926911	-0.082673038	-0.59165341	0.038941116	0.061484107	-1.1593064	0.24229739	-0.11664068	-0.73801213	0.054894881	0.098659939	-1.1300343	0.22941258	-0.023550904	-0.73094429	0.089666235	0.0055285941	-1.2281788	0.2796623	-0.067950152	-0.80843122	0.031784366	0.052265531	-0.80192762	0.43620152	-0.14630986	-0.66016466	0.50318302	0.14725921	-0.78680485	0.4212923	-0.020460982	-0.67938368	0.48999569	0.020414637	-0.86000437	0.84139822	-0.15953481	-0.83134478	0.87319216	0.21180577	-0.77444874	0.93164193	-0.11030856	-0.75593829	0.95750903	0.12779397	-0.93107358	1.0005454	0.020642934	-0.75693875	1.3976696	-0.14584374	-0.77106519	1.4033215	0.18210201	-0.82540589	1.4537487	0.019563406	-0.90942198	1.0600345	-0.21948687	-0.9169041	1.0709449	0.27178323	-0.74310306	0.84903088	-0.22184916	-0.77316532	0.83891898	0.31224402
